<svg height="200" width="600" version="1.1" xmlns="http://www.w3.org/2000/svg"><g transform="translate(0,0)"  xmlns:xlink="http://www.w3.org/1999/xlink" version="1.1" style="font-family:'lucida grande', 'lucida sans unicode', arial, helvetica, sans-serif;font-size:12px;" xmlns="http://www.w3.org/2000/svg" width="600" height="200"><desc>Created with Highcharts 4.2.4</desc><defs><clipPath id="highcharts-9"><rect x="0" y="0" width="521" height="120"></rect></clipPath></defs><rect x="0" y="0" width="600" height="200" fill="#FFFFFF" class=" highcharts-background"></rect><g class="highcharts-grid"></g><g class="highcharts-grid"><path fill="none" d="M 69 165.5 L 590 165.5" stroke="#D8D8D8" stroke-width="1" opacity="1"></path><path fill="none" d="M 69 125.5 L 590 125.5" stroke="#D8D8D8" stroke-width="1" opacity="1"></path><path fill="none" d="M 69 85.5 L 590 85.5" stroke="#D8D8D8" stroke-width="1" opacity="1"></path><path fill="none" d="M 69 44.5 L 590 44.5" stroke="#D8D8D8" stroke-width="1" opacity="1"></path></g><g class="highcharts-axis"><path fill="none" d="M 111.5 165 L 111.5 175" stroke="#C0D0E0" stroke-width="1" opacity="1"></path><path fill="none" d="M 155.5 165 L 155.5 175" stroke="#C0D0E0" stroke-width="1" opacity="1"></path><path fill="none" d="M 198.5 165 L 198.5 175" stroke="#C0D0E0" stroke-width="1" opacity="1"></path><path fill="none" d="M 242.5 165 L 242.5 175" stroke="#C0D0E0" stroke-width="1" opacity="1"></path><path fill="none" d="M 285.5 165 L 285.5 175" stroke="#C0D0E0" stroke-width="1" opacity="1"></path><path fill="none" d="M 329.5 165 L 329.5 175" stroke="#C0D0E0" stroke-width="1" opacity="1"></path><path fill="none" d="M 372.5 165 L 372.5 175" stroke="#C0D0E0" stroke-width="1" opacity="1"></path><path fill="none" d="M 415.5 165 L 415.5 175" stroke="#C0D0E0" stroke-width="1" opacity="1"></path><path fill="none" d="M 459.5 165 L 459.5 175" stroke="#C0D0E0" stroke-width="1" opacity="1"></path><path fill="none" d="M 502.5 165 L 502.5 175" stroke="#C0D0E0" stroke-width="1" opacity="1"></path><path fill="none" d="M 546.5 165 L 546.5 175" stroke="#C0D0E0" stroke-width="1" opacity="1"></path><path fill="none" d="M 590.5 165 L 590.5 175" stroke="#C0D0E0" stroke-width="1" opacity="1"></path><path fill="none" d="M 68.5 165 L 68.5 175" stroke="#C0D0E0" stroke-width="1" opacity="1"></path><path fill="none" d="M 69 165.5 L 590 165.5" stroke="#C0D0E0" stroke-width="1"></path></g><g class="highcharts-axis"><text x="23.765625" text-anchor="middle" transform="translate(0,0) rotate(270 23.765625 105)" class=" highcharts-yaxis-title" style="color:#707070;fill:#707070;" y="105">Values</text></g><g class="highcharts-series-group"><g class="highcharts-series highcharts-series-0" transform="translate(69,45) scale(1 1)" clip-path="url(#highcharts-9)"><path fill="none" d="M 21.708333333333332 108.03999999999999 L 65.125 91.4 L 108.54166666666666 77.44 L 151.95833333333334 68.32 L 195.375 62.4 L 238.79166666666666 49.599999999999994 L 282.2083333333333 65.75999999999999 L 325.62499999999994 60.599999999999994 L 369.04166666666663 33.44 L 412.4583333333333 42.36 L 455.87499999999994 81.75999999999999 L 499.29166666666663 98.24" stroke="#7cb5ec" stroke-width="2" stroke-linejoin="round" stroke-linecap="round"></path></g><g class="highcharts-markers highcharts-series-0" transform="translate(69,45) scale(1 1)" clip-path="none"><path fill="#7cb5ec" d="M 499 94.24 C 504.328 94.24 504.328 102.24 499 102.24 C 493.672 102.24 493.672 94.24 499 94.24 Z"></path><path fill="#7cb5ec" d="M 455 77.75999999999999 C 460.328 77.75999999999999 460.328 85.75999999999999 455 85.75999999999999 C 449.672 85.75999999999999 449.672 77.75999999999999 455 77.75999999999999 Z"></path><path fill="#7cb5ec" d="M 412 38.36 C 417.328 38.36 417.328 46.36 412 46.36 C 406.672 46.36 406.672 38.36 412 38.36 Z"></path><path fill="#7cb5ec" d="M 369 29.439999999999998 C 374.328 29.439999999999998 374.328 37.44 369 37.44 C 363.672 37.44 363.672 29.439999999999998 369 29.439999999999998 Z"></path><path fill="#7cb5ec" d="M 325 56.599999999999994 C 330.328 56.599999999999994 330.328 64.6 325 64.6 C 319.672 64.6 319.672 56.599999999999994 325 56.599999999999994 Z"></path><path fill="#7cb5ec" d="M 282 61.75999999999999 C 287.328 61.75999999999999 287.328 69.75999999999999 282 69.75999999999999 C 276.672 69.75999999999999 276.672 61.75999999999999 282 61.75999999999999 Z"></path><path fill="#7cb5ec" d="M 238 45.599999999999994 C 243.328 45.599999999999994 243.328 53.599999999999994 238 53.599999999999994 C 232.672 53.599999999999994 232.672 45.599999999999994 238 45.599999999999994 Z"></path><path fill="#7cb5ec" d="M 195 58.4 C 200.328 58.4 200.328 66.4 195 66.4 C 189.672 66.4 189.672 58.4 195 58.4 Z"></path><path fill="#7cb5ec" d="M 151 64.32 C 156.328 64.32 156.328 72.32 151 72.32 C 145.672 72.32 145.672 64.32 151 64.32 Z"></path><path fill="#7cb5ec" d="M 108 73.44 C 113.328 73.44 113.328 81.44 108 81.44 C 102.672 81.44 102.672 73.44 108 73.44 Z"></path><path fill="#7cb5ec" d="M 65 87.4 C 70.328 87.4 70.328 95.4 65 95.4 C 59.672 95.4 59.672 87.4 65 87.4 Z"></path><path fill="#7cb5ec" d="M 21 104.03999999999999 C 26.328 104.03999999999999 26.328 112.03999999999999 21 112.03999999999999 C 15.672 112.03999999999999 15.672 104.03999999999999 21 104.03999999999999 Z"></path></g></g><text x="300" text-anchor="middle" class="highcharts-title" style="color:#333333;font-size:18px;fill:#333333;width:536px;" y="24"><tspan>First Chart</tspan></text><g class="highcharts-legend"><g><g></g></g></g><g class="highcharts-axis-labels highcharts-xaxis-labels"><text x="90.70833333333333" style="color:#606060;cursor:default;font-size:11px;fill:#606060;" text-anchor="middle" transform="translate(0,0)" y="184" opacity="1">Jan</text><text x="134.12499999999997" style="color:#606060;cursor:default;font-size:11px;fill:#606060;" text-anchor="middle" transform="translate(0,0)" y="184" opacity="1">Feb</text><text x="177.54166666666666" style="color:#606060;cursor:default;font-size:11px;fill:#606060;" text-anchor="middle" transform="translate(0,0)" y="184" opacity="1">Mar</text><text x="220.95833333333331" style="color:#606060;cursor:default;font-size:11px;fill:#606060;" text-anchor="middle" transform="translate(0,0)" y="184" opacity="1">Apr</text><text x="264.37500000000006" style="color:#606060;cursor:default;font-size:11px;fill:#606060;" text-anchor="middle" transform="translate(0,0)" y="184" opacity="1">May</text><text x="307.7916666666667" style="color:#606060;cursor:default;font-size:11px;fill:#606060;" text-anchor="middle" transform="translate(0,0)" y="184" opacity="1">Jun</text><text x="351.2083333333333" style="color:#606060;cursor:default;font-size:11px;fill:#606060;" text-anchor="middle" transform="translate(0,0)" y="184" opacity="1">Jul</text><text x="394.625" style="color:#606060;cursor:default;font-size:11px;fill:#606060;" text-anchor="middle" transform="translate(0,0)" y="184" opacity="1">Aug</text><text x="438.04166666666663" style="color:#606060;cursor:default;font-size:11px;fill:#606060;" text-anchor="middle" transform="translate(0,0)" y="184" opacity="1">Sep</text><text x="481.4583333333333" style="color:#606060;cursor:default;font-size:11px;fill:#606060;" text-anchor="middle" transform="translate(0,0)" y="184" opacity="1">Oct</text><text x="524.8749999999999" style="color:#606060;cursor:default;font-size:11px;fill:#606060;" text-anchor="middle" transform="translate(0,0)" y="184" opacity="1">Nov</text><text x="568.2916666666666" style="color:#606060;cursor:default;font-size:11px;fill:#606060;" text-anchor="middle" transform="translate(0,0)" y="184" opacity="1">Dec</text></g><g class="highcharts-axis-labels highcharts-yaxis-labels"><text x="54" style="color:#606060;cursor:default;font-size:11px;fill:#606060;width:188px;text-overflow:clip;" text-anchor="end" transform="translate(0,0)" y="170" opacity="1">0</text><text x="54" style="color:#606060;cursor:default;font-size:11px;fill:#606060;width:188px;text-overflow:clip;" text-anchor="end" transform="translate(0,0)" y="130" opacity="1">100</text><text x="54" style="color:#606060;cursor:default;font-size:11px;fill:#606060;width:188px;text-overflow:clip;" text-anchor="end" transform="translate(0,0)" y="90" opacity="1">200</text><text x="54" style="color:#606060;cursor:default;font-size:11px;fill:#606060;width:188px;text-overflow:clip;" text-anchor="end" transform="translate(0,0)" y="50" opacity="1">300</text></g><g class="highcharts-tooltip" style="cursor:default;padding:0;pointer-events:none;white-space:nowrap;" transform="translate(0,-9999)"><path fill="none" d="M 3.5 0.5 L 13.5 0.5 C 16.5 0.5 16.5 0.5 16.5 3.5 L 16.5 13.5 C 16.5 16.5 16.5 16.5 13.5 16.5 L 3.5 16.5 C 0.5 16.5 0.5 16.5 0.5 13.5 L 0.5 3.5 C 0.5 0.5 0.5 0.5 3.5 0.5"  stroke="black" stroke-opacity="0.049999999999999996" stroke-width="5" transform="translate(1, 1)"></path><path fill="none" d="M 3.5 0.5 L 13.5 0.5 C 16.5 0.5 16.5 0.5 16.5 3.5 L 16.5 13.5 C 16.5 16.5 16.5 16.5 13.5 16.5 L 3.5 16.5 C 0.5 16.5 0.5 16.5 0.5 13.5 L 0.5 3.5 C 0.5 0.5 0.5 0.5 3.5 0.5"  stroke="black" stroke-opacity="0.09999999999999999" stroke-width="3" transform="translate(1, 1)"></path><path fill="none" d="M 3.5 0.5 L 13.5 0.5 C 16.5 0.5 16.5 0.5 16.5 3.5 L 16.5 13.5 C 16.5 16.5 16.5 16.5 13.5 16.5 L 3.5 16.5 C 0.5 16.5 0.5 16.5 0.5 13.5 L 0.5 3.5 C 0.5 0.5 0.5 0.5 3.5 0.5"  stroke="black" stroke-opacity="0.15" stroke-width="1" transform="translate(1, 1)"></path><path fill="rgb(249, 249, 249)" fill-opacity=" .85" d="M 3.5 0.5 L 13.5 0.5 C 16.5 0.5 16.5 0.5 16.5 3.5 L 16.5 13.5 C 16.5 16.5 16.5 16.5 13.5 16.5 L 3.5 16.5 C 0.5 16.5 0.5 16.5 0.5 13.5 L 0.5 3.5 C 0.5 0.5 0.5 0.5 3.5 0.5"></path><text x="8" style="font-size:12px;color:#333333;fill:#333333;" y="20"></text></g></g></svg>